<mxfile host="app.diagrams.net" modified="2020-10-21T07:25:38.119Z" agent="5.0 (Windows NT 10.0; Win64; x64) AppleWebKit/537.36 (KHTML, like Gecko) Chrome/86.0.4240.75 Safari/537.36" etag="EhVA4qX2mIhyPmhbh8e8" version="13.8.1" type="github">
  <diagram id="3zYTYvADAsX02LUC9Yw5" name="Page-1">
    <mxGraphModel dx="782" dy="706" grid="1" gridSize="10" guides="1" tooltips="1" connect="1" arrows="1" fold="1" page="1" pageScale="1" pageWidth="827" pageHeight="1169" math="0" shadow="0">
      <root>
        <mxCell id="0" />
        <mxCell id="1" parent="0" />
        <mxCell id="3AON7v2RL1QAr8vnwBgm-34" value="" style="rounded=0;whiteSpace=wrap;html=1;" vertex="1" parent="1">
          <mxGeometry x="40" y="600" width="390" height="420" as="geometry" />
        </mxCell>
        <mxCell id="3AON7v2RL1QAr8vnwBgm-6" style="edgeStyle=orthogonalEdgeStyle;rounded=0;orthogonalLoop=1;jettySize=auto;html=1;exitX=0.5;exitY=1;exitDx=0;exitDy=0;" edge="1" parent="1">
          <mxGeometry relative="1" as="geometry">
            <mxPoint x="440" y="700" as="sourcePoint" />
            <mxPoint x="440" y="700" as="targetPoint" />
          </mxGeometry>
        </mxCell>
        <mxCell id="3AON7v2RL1QAr8vnwBgm-15" value="" style="group" vertex="1" connectable="0" parent="1">
          <mxGeometry x="130" y="160" width="380" height="360" as="geometry" />
        </mxCell>
        <mxCell id="3AON7v2RL1QAr8vnwBgm-13" value="" style="rounded=0;whiteSpace=wrap;html=1;" vertex="1" parent="3AON7v2RL1QAr8vnwBgm-15">
          <mxGeometry width="380" height="360" as="geometry" />
        </mxCell>
        <mxCell id="3AON7v2RL1QAr8vnwBgm-14" value="&lt;font style=&quot;font-size: 16px&quot;&gt;&lt;b&gt;Wi-Fi測位システム&lt;/b&gt;&lt;/font&gt;" style="text;html=1;strokeColor=none;fillColor=none;align=center;verticalAlign=middle;whiteSpace=wrap;rounded=0;" vertex="1" parent="3AON7v2RL1QAr8vnwBgm-15">
          <mxGeometry x="85.80645161290325" y="32.72727272727273" width="208.38709677419357" height="32.72727272727273" as="geometry" />
        </mxCell>
        <mxCell id="3AON7v2RL1QAr8vnwBgm-22" value="機器の位置情報&lt;br&gt;の表示" style="ellipse;whiteSpace=wrap;html=1;" vertex="1" parent="3AON7v2RL1QAr8vnwBgm-15">
          <mxGeometry x="85.81" y="65.45" width="160.52" height="110" as="geometry" />
        </mxCell>
        <mxCell id="3AON7v2RL1QAr8vnwBgm-40" style="edgeStyle=orthogonalEdgeStyle;rounded=0;orthogonalLoop=1;jettySize=auto;html=1;entryX=0.5;entryY=1;entryDx=0;entryDy=0;" edge="1" parent="3AON7v2RL1QAr8vnwBgm-15" source="3AON7v2RL1QAr8vnwBgm-39" target="3AON7v2RL1QAr8vnwBgm-22">
          <mxGeometry relative="1" as="geometry">
            <Array as="points">
              <mxPoint x="166" y="260" />
            </Array>
          </mxGeometry>
        </mxCell>
        <mxCell id="3AON7v2RL1QAr8vnwBgm-39" value="データを受信する" style="ellipse;whiteSpace=wrap;html=1;" vertex="1" parent="3AON7v2RL1QAr8vnwBgm-15">
          <mxGeometry x="230" y="260" width="120" height="80" as="geometry" />
        </mxCell>
        <mxCell id="3AON7v2RL1QAr8vnwBgm-23" style="edgeStyle=orthogonalEdgeStyle;rounded=0;orthogonalLoop=1;jettySize=auto;html=1;exitX=0.5;exitY=0.5;exitDx=0;exitDy=0;exitPerimeter=0;entryX=0;entryY=0.5;entryDx=0;entryDy=0;" edge="1" parent="1" source="3AON7v2RL1QAr8vnwBgm-16" target="3AON7v2RL1QAr8vnwBgm-22">
          <mxGeometry relative="1" as="geometry" />
        </mxCell>
        <mxCell id="3AON7v2RL1QAr8vnwBgm-16" value="user" style="shape=umlActor;verticalLabelPosition=bottom;verticalAlign=top;html=1;outlineConnect=0;" vertex="1" parent="1">
          <mxGeometry x="20" y="250" width="30" height="60" as="geometry" />
        </mxCell>
        <mxCell id="3AON7v2RL1QAr8vnwBgm-32" style="edgeStyle=orthogonalEdgeStyle;rounded=0;orthogonalLoop=1;jettySize=auto;html=1;exitX=1;exitY=0.5;exitDx=0;exitDy=0;exitPerimeter=0;" edge="1" parent="1" source="3AON7v2RL1QAr8vnwBgm-24" target="3AON7v2RL1QAr8vnwBgm-34">
          <mxGeometry relative="1" as="geometry">
            <mxPoint x="350" y="520" as="targetPoint" />
          </mxGeometry>
        </mxCell>
        <mxCell id="3AON7v2RL1QAr8vnwBgm-24" value="機器" style="shape=cylinder3;whiteSpace=wrap;html=1;boundedLbl=1;backgroundOutline=1;size=15;fillColor=#dae8fc;strokeColor=#6c8ebf;" vertex="1" parent="1">
          <mxGeometry x="250" y="760" width="60" height="80" as="geometry" />
        </mxCell>
        <mxCell id="3AON7v2RL1QAr8vnwBgm-28" style="edgeStyle=orthogonalEdgeStyle;rounded=0;orthogonalLoop=1;jettySize=auto;html=1;entryX=0;entryY=0.5;entryDx=0;entryDy=0;entryPerimeter=0;" edge="1" parent="1" source="3AON7v2RL1QAr8vnwBgm-25" target="3AON7v2RL1QAr8vnwBgm-24">
          <mxGeometry relative="1" as="geometry" />
        </mxCell>
        <mxCell id="3AON7v2RL1QAr8vnwBgm-25" value="&lt;span&gt;ルータ&lt;/span&gt;" style="shape=cube;whiteSpace=wrap;html=1;boundedLbl=1;backgroundOutline=1;darkOpacity=0.05;darkOpacity2=0.1;fillColor=#f5f5f5;strokeColor=#666666;fontColor=#333333;" vertex="1" parent="1">
          <mxGeometry x="60" y="760" width="60" height="80" as="geometry" />
        </mxCell>
        <mxCell id="3AON7v2RL1QAr8vnwBgm-29" style="edgeStyle=orthogonalEdgeStyle;rounded=0;orthogonalLoop=1;jettySize=auto;html=1;entryX=0.5;entryY=0;entryDx=0;entryDy=0;entryPerimeter=0;" edge="1" parent="1" source="3AON7v2RL1QAr8vnwBgm-26" target="3AON7v2RL1QAr8vnwBgm-24">
          <mxGeometry relative="1" as="geometry" />
        </mxCell>
        <mxCell id="3AON7v2RL1QAr8vnwBgm-26" value="ルータ" style="shape=cube;whiteSpace=wrap;html=1;boundedLbl=1;backgroundOutline=1;darkOpacity=0.05;darkOpacity2=0.1;fillColor=#f5f5f5;strokeColor=#666666;fontColor=#333333;" vertex="1" parent="1">
          <mxGeometry x="250" y="610" width="60" height="80" as="geometry" />
        </mxCell>
        <mxCell id="3AON7v2RL1QAr8vnwBgm-30" style="edgeStyle=orthogonalEdgeStyle;rounded=0;orthogonalLoop=1;jettySize=auto;html=1;entryX=0.5;entryY=1;entryDx=0;entryDy=0;entryPerimeter=0;" edge="1" parent="1" source="3AON7v2RL1QAr8vnwBgm-27" target="3AON7v2RL1QAr8vnwBgm-24">
          <mxGeometry relative="1" as="geometry" />
        </mxCell>
        <mxCell id="3AON7v2RL1QAr8vnwBgm-27" value="&lt;span&gt;ルータ&lt;/span&gt;" style="shape=cube;whiteSpace=wrap;html=1;boundedLbl=1;backgroundOutline=1;darkOpacity=0.05;darkOpacity2=0.1;fillColor=#f5f5f5;strokeColor=#666666;fontColor=#333333;" vertex="1" parent="1">
          <mxGeometry x="250" y="910" width="60" height="80" as="geometry" />
        </mxCell>
        <mxCell id="3AON7v2RL1QAr8vnwBgm-36" style="edgeStyle=orthogonalEdgeStyle;rounded=0;orthogonalLoop=1;jettySize=auto;html=1;entryX=1;entryY=0.5;entryDx=0;entryDy=0;" edge="1" parent="1" source="3AON7v2RL1QAr8vnwBgm-35" target="3AON7v2RL1QAr8vnwBgm-39">
          <mxGeometry relative="1" as="geometry" />
        </mxCell>
        <mxCell id="3AON7v2RL1QAr8vnwBgm-35" value="ルータ" style="shape=umlActor;verticalLabelPosition=bottom;verticalAlign=top;html=1;outlineConnect=0;" vertex="1" parent="1">
          <mxGeometry x="550" y="430" width="30" height="60" as="geometry" />
        </mxCell>
      </root>
    </mxGraphModel>
  </diagram>
</mxfile>
